<?xml version="1.0" encoding="UTF-8" standalone="no"?>
<svg xmlns:rdf="http://www.w3.org/1999/02/22-rdf-syntax-ns#" xmlns="http://www.w3.org/2000/svg" enable-background="new 0 0 161 161" xml:space="preserve" viewBox="0 0 351.87817 346.92941" height="313.995653526" width="318.475746008" version="1.1" y="0px" x="0px" xmlns:cc="http://creativecommons.org/ns#" xmlns:xlink="http://www.w3.org/1999/xlink" xmlns:dc="http://purl.org/dc/elements/1.1/"><g transform="matrix(2.1904 0 0 2.1904 -.31448 -2.5522)"><path d="m154.5 54.6c-10.6-31-41.8-51.7-74.5-51.3-29.8 0-58.6 17.5-71.1 45-12 25.8-7.4 59.1 10.3 80.2 7.4 8.6 15.4 15.9 25.5 20.3 2.1 1.8 5.2 2.6 7.9 3.8 27.6 10.6 61.9 3.9 82.3-16.8 21.5-20.5 29.8-52.4 19.6-81.2" clip-path="url(#b)" fill="#efab00"/><g fill="#003976"><path d="m156 54.1c-10.8-31.6-42.7-52.8-76-52.3-30.4 0-59.8 17.8-72.5 45.9-12.3 26.3-7.6 60.3 10.5 81.9 7.6 8.8 15.7 16.2 26 20.7 2.2 1.8 5.3 2.6 8 3.9 28.1 10.8 63.1 4 83.9-17.1 22.1-21 30.5-53.6 20.1-83m1.1 17.1c-0.4 0.1-1 0.4-1.4 0.1 0.1-1 0.6-2.2 0.1-3.4-0.4-1.4-2.1-1.4-3.2-1.1-2.4 2.5-3.3 7.8-8 6.3-2-0.7-2.2-3.4-2.4-5.4 0.2-0.4 0.1-1.3 0.9-1.4 1 0.4-0.1 2.2 0.5 3.2 0.5 1.2 2.2 1.3 3.2 0.8 2.7-2.2 4.2-9.8 8.8-5 1.4 1.6 1.3 3.8 1.5 5.9m-3.7-15.7c-0.1 1.5-0.6 3.1-2 3.8-1.9 0.3-3-1.1-4.2-2.4-0.5 3.4-3.8 5.2-5.9 7.2-1.5-4.2 5-5 4.5-9.3-2.2 0.1-4.2 1.4-6.1 2.5-0.6-0.6-0.8-1.4-0.7-2.3 4-1.4 7.7-3.7 11.6-5.2 2 0.9 2.3 3.6 2.8 5.7m-5.7-13.1c-0.1 1.3 2.4 2.5 0.5 3.6h-0.4c-0.5-1.6-1-3.4-2.3-4.6-1.6 0.1-2.5 1.6-3.9 2.1-1.3 1.7 3.8 3.5 0.2 4-0.4-1-0.7-2.2-1.6-3.1-1.5 0.8-3 1.3-4.5 2.4-0.1 1.8 2.2 2.8 2.9 4.1-0.7 0-1.5 0.8-2 0-1.3-1.9-2.6-3.8-3.3-5.9 3.9-1.6 7.4-4.2 11-6.5 1.9 0.7 2 2.6 3.4 3.9m-12.1-15.1c-2.1 3.1-3.9 6.2-4.7 9.7 3.6-0.2 7.1-1.4 10.2-3.2 0.7 0.1 1.3 0.4 1.8 1.1v0.8c-4.9 1.3-9.9 2.4-14.8 4-0.1-0.2-0.2-0.2-0.4-0.4 1.2-5 4-9.4 5.3-14.4 0.9 0.5 1.8 1.4 2.6 2.4m-5-5.1c0.1 0.3 0.1 0.4 0 0.7-3.1 2.5-5.8 6.6-7.9 10.3-1-0.2-1.5-0.9-2.2-1.6 2.4-3.4 5.3-6.8 7.1-10.6 1.3-0.1 2 0.8 3 1.2m-17.3-10.7c2.3 3.9 2.7 8.9 3.7 13.5 2.3-2.2 4.3-5.1 5.3-8.1 0.7 0.2 1.3 0.5 1.6 0.9v0.5c-2.9 3.7-5.1 7.2-7.6 10.8-1.3 0-0.6-1.4-1.3-1.9-0.5-3.4-1-6.8-2.3-9.9h-0.6c-1.1 2.3-2 4.8-2.7 7.3-0.7 0.2-1.4-0.3-1.9-0.9 2.6-3.9 3.9-8.2 5.8-12.2m-18.7-5.4c1.1 0 2.2 0 3 0.7-0.9 3.6-3.1 8.5-0.2 11.8 1 1.2 2.4 1.6 3.8 1.1 3.6-2 4-6.7 4.5-10.6 0.5-0.4 1.3-0.1 1.8 0.4-1.3 4-2.1 8.7-5.6 11.5-1.6 1-3.2 0.4-4.8-0.2-4.9-3.2-2.7-9.6-2.5-14.7m-23-0.9c0.6-0.2 1.6-0.4 1.8 0.5v0.7c-2.2 0.2-4.8-0.6-6.4 1.1 0.6 1.2 0.1 2.8 1 3.8 1.6 0.1 3.2-0.1 4.7-0.5 0 0.5 0.7 1.1 0.1 1.6-1.4 0.5-3.4-0.3-4.6 0.8 0.2 1.5 0.1 3.4 1.4 4.3 2-0.1 4.1-0.2 5.7-1.4 0.3 0.5 0.1 1.2 0.1 1.8-2.5 1.2-5.7 0.9-8.5 1.4-0.4-4.5-1.9-8.5-2.9-12.7 2-1.1 5-1.3 7.6-1.4m-24.9 6.8c4.5-1.9 9.1-3.8 14.1-4.8 0.4 0.2 0.2 0.7 0.5 0.9v0.7c-1.9 0-3.7-0.1-5.2 0.9 0.3 4.1 2.2 7.9 4.2 11.5-0.8 0.4-1.6 0.9-2.7 0.7-1.3-3.7-2.2-7.6-4.8-10.8-2.2 0-3.6 1.9-5.6 2.4-0.2-0.5-0.9-1-0.5-1.5m7.3 11.4c-0.7 1-1.9 1.3-3 1.4-1.4-1.3-2.6-3.2-4.7-2.7-1.1 0.7-2.4 1.3-3.3 2.3-1.1 2.4 4.5 4.6 0 5.8-0.5 0-0.2-0.5-0.5-0.7-1-4.9-1.6-9.4-2.4-14.5 4.8 2.3 9.3 5.3 13.9 8.4m-19.4-4.4c3 3.2-3.6 2.4-3.2 5.2 2 2.9 4.8 6.1 7.6 8.1-0.1 1.1-1.4 1.8-2.3 2.1-2.3-2.8-4.7-6.1-7.5-8.2-1.7 0.4-3.1 1.9-3.7 3.6-0.7 0.2-1.2-0.6-1.5-1 2.9-4 6.7-6.6 10.6-9.8m-12.9 11.3c0.7-0.1 0.8 0.3 1.3 0.8-1.2 0.7-2.2 2-1.8 3.6 2.9 3.1 6.1-1.6 9.4 0.7 1.2 1.3 2.3 2.7 1.6 4.5-1 1.9-2.2 4.1-4.1 4.9-0.3-0.6-1.1-1.1-0.6-1.8 1.1-0.7 2.8-1.1 3-2.7 0.1-1-0.4-1.9-1.3-2.3-3.6-0.5-7.8 2.8-9.9-1.4-0.2-2.7 0.6-4.8 2.4-6.3m-11.2 17.4c0.7-0.2 1.3 0.1 1.8 0.5 0.1 1-1.3 1.5-1.6 2.3-0.2 1-1 2-0.7 3.1 3.3 2 7.1 3.1 11.2 3.4 0.4 0.7 0.1 2-0.4 2.9-0.8 0.9-2.2-0.1-3-0.5-3-0.8-5.6-2.4-8.9-2.5-1.1 1.4-1.5 3.4-1 5.2-0.5 0.3-1.2 0.1-1.8 0.2-0.1-0.2-0.2-0.2-0.4-0.4 1-5 2.9-9.7 4.8-14.2m4.1 20.4c-0.1-0.2-0.2-0.2-0.4-0.4-3.2-0.3-6.1-0.7-9.2-0.2-0.6-0.6-0.4-1.7-0.2-2.4 0.2 0 0.3-0.1 0.4-0.2 4.4 1.3 8.9 1.9 13.7 2.2 0.9 0.4-0.1 0.8-0.2 1.3-3.1 2.9-7 4.6-9.9 7.7l0.4 0.4c2.6 0.3 5.3 0.2 7.8-0.4 0.7 0.7 0.4 1.8 0 2.5-4.7-0.7-9.4-0.1-14.2-0.5 2.9-4.3 7.8-6.7 11.8-10m-9.9 24.9c-0.7-2.8-0.9-6.1-1.3-8.8 0.5-0.5 1-0.7 1.8-0.5-0.1 2.1-0.8 4.7 0.7 6.6 1.4-0.4 3.6 0.3 4.2-1.2 0.2-1.5-1.2-2.7-0.1-4 2.4-0.1 0.7 2.6 1.4 4.1 1.3 0.4 3.2 0.1 4.5-0.5 0.6-1.1 0.4-2.8 0.1-4-0.4-0.7-0.5-1.6-0.7-2.5h1.9c0.1 2.8 0.5 6.1 0.5 8.5-4 1.3-8.4 1.8-12.5 3.1-0.3 0-0.1-0.6-0.5-0.8m5.7 17.7c-0.8-0.8-1.3-1.9-1.6-3.1 1.7-1 3.9-0.9 5.5-2.2-2.5-3-7.9-2.7-9.1-7-0.3-1.1 0.7-0.4 1-0.1 2.7 1.9 4.9 3.7 7.9 4.9 1-3.7 3.4-6.3 4.5-9.9 1 0.8 1.1 2.2 1.3 3.6-1.5 2.4-3.2 4.7-3.8 7.6 0.4 0.3 1.1 0.1 1.4-0.2h0.1-0.1c0.1-0.1 0.8-0.4 1.1-0.2 1.2-0.2 2.6-1.9 3.6-0.5 0.1 0.5 0.5 1.1 0.4 1.8-4.6 1.2-8.1 3.1-12.2 5.3m8.5 5.9c0.9-0.5 1.8-1.2 2.8-1.4 0.3 1.2 0.9 2.2 0.9 3.6-1.1-0.4-3-0.9-3.7-2.2m15.1 18.7c-2.2 0.4-4.5 0.2-6.1-1.2-1.3-1.1-2.4-2.6-2.4-4.3 0.2-1.6 0.1-3.4 1.4-4.7 1.5-1.5 3.8-1.7 5.9-1.3 1.8 0.7 3.4 1.7 4.3 3.4 0.7 1.3 0.9 3.1 0.5 4.5-0.4 1.7-2.2 2.8-3.6 3.6m12.9 11.7c-0.7 0-1.3-0.5-1.8-0.9 0.5-1.6 1.6-3.1 2.3-4.7-1.7-1.5-3.6-2.6-5.6-3.4-1 1.2-2.2 2.6-2.8 4.2-0.6 0.5-1-0.4-1.6-0.6-0.2-0.2-0.3-0.2-0.5-0.5 2.4-3 3.8-6.1 6.2-9 0.6 0.4 1.3 0.4 1.8 1.1-0.4 1.3-2.8 2.5-1.4 3.9 1.6 1 2.7 1.9 4.5 2.7 2.2-0.1 1.2-5.6 3.9-2.5-1.7 3.2-3.2 6.5-5 9.7m8.1 3.4c-0.7-0.5-3.2-0.2-2.2-1.9 1.5-3 2.7-6.1 3.9-9.2 0.7 0.1 1.2 0.6 1.8 0.9-1.4 3.2-2.4 6.8-3.5 10.2m18.4-0.5c-0.8 2.2-3.2 3.9-5.5 4.1-1.6 0.4-3-0.6-4.3-1.3-1.3-1.3-2.4-2.9-2.4-4.9 0.1-2.6 1.6-4.1 3.7-5.4 2.7-1 5.5 0.1 7.3 1.8 1.4 1.5 1.6 3.7 1.2 5.7m9.6 1c-0.8-1.1-2.2-2.9-1.6-4.1 1.3 0.7 2.3-0.7 3.2 0.5-0.4 1.3-1.1 2.4-1.6 3.6m13.9 2.6c-0.5-1.4-0.5-3.1-0.7-4.7-0.4-1.8-0.2-4.1-1.9-5.4 0.4-0.7 1.2-1.4 2.2-1.4 0.8 3.2 1.3 6.7 2.4 9.7 0 1.1-1.1 1.3-2 1.8m15.7-7.1c-0.6 1.4-1.3 2.7-2.3 4 0.2-2.2 1.9-4.9 0.7-7.6-0.8-0.4-0.7 0.7-1.1 0.8-1.1 1.5-3.1 1.6-4.8 1.3-1.8-0.7-1.7-2.8-1.4-4.3 0.4-1.7 2.2-2.2 3.6-2.7 1.7-0.2 3.2 0.1 4.5 1 1.9 2.2 1.4 4.8 0.8 7.5m10.3-4.1c-1.7-3-3.4-6.2-6.2-8.6 0.3-0.7 0.3-2 1.5-1.7 2.3 2.6 3.9 5.8 6.4 8.5-0.4 0.8-0.8 1.5-1.7 1.8m12.8-12.4c-0.8 2.1-2.7 3.7-4.8 3.8-2.2 0.3-4.1-1.1-5.1-2.7-0.6-1.6-0.5-3.9 0.4-5.4 1.6-2.6 6-4 8.3-1.3 1.5 1.4 1.6 3.6 1.2 5.6m-5.1-16.4c-14.2 20.5-39 30.4-64 24.7-22.8-4.7-42.4-25.6-45.6-48.8-4-24.9 8-48.7 29.4-60.8 19-11.6 48.3-9.9 65.9 3.4 7.4 5.3 14.2 13.6 18.3 21.4 9.6 18.3 7.6 43.5-4 60.1m8.3 4.1c0.4-1.3 0.7-2.6 1.5-3.7 1 0.1 1.8 1 2.7 1.4-1.1 1.3-2.7 1.7-4.2 2.3m15.5-16.5c-0.8 1.4-3.2 0.4-4.6 0.9-1 0.4-3.4 0.5-2.3 2.4 0.4 2.6 5.7 4.6 2.8 7.2-1-2.2-3.3-5.5-4.5-8.3-1.9-0.8-3.9-1.2-5.9-1.8 0.1-0.9 0.4-1.8 1-2.5 1.9 0.7 3.6 1.9 5.7 1.9 2.6-0.7 5.2-1.6 7.9-2.2 0.1 0.8 0.2 1.7-0.1 2.4m1.1-4.5c-1.9 1-1.8-0.8-0.9-1.8 0.4-0.7 0.5-1.8 0.7-2.7-1.6-1.3-3.8-1.2-5.9-1.4-2.1-1.4-8.3 2.5-6.2-2.7 1.4-0.4 3.2 0.2 4.8 0.2 2.6 0.1 4.5 0.4 7.1 0.5 1-1.1 1.1-2.9 0.5-4.1-0.1-0.5-0.5-0.9-0.4-1.5 0.5-0.4 1.2 0.1 1.8 0 0.5 4.9-0.4 9-1.5 13.5m-0.9-16.5c-3.6 0.2-7.5-0.4-10.7 0.5-0.6-1.1-0.4-2 0-3.1 4.6 0.7 8.9 0.2 13.1-0.9 0.2 0.7 0.4 1.3 0.4 2.2 0.6 1.7-1.7 1.1-2.8 1.3" clip-path="url(#b)"/><path d="m45.6 20.7c-0.7 1.1-2 1.3-3 1.8-0.7-1.3-0.7-3.1-0.7-4.5 1.2 0.9 2.5 1.8 3.7 2.7" clip-path="url(#a)"/><path d="m121.5 50.4c-20-7-41.9-8.8-63.7-4.7-6.1 1.2-12.5 2.8-17.7 4.7-1.6 9.1-1.7 18.9 0.2 28.2 4.8 21.8 20.3 41.3 40.2 53.3 4-2.1 7.3-4.7 11.1-7.6 7.3-5.9 12.5-12 17.7-19.3 11.2-15.3 15.3-34.8 12.2-54.6m-11.2 30c-5.8 1.1-10.7 0.9-16.4 2.2 4.6 1.9 7.9 6.7 13.6 6.2 1.9 0.8 2.6 2.8 3 4.6-1.1-1.4-2.4-3.1-4.6-3.4-5.5 2.9-8.8-3-13.7-2.9 2.9 5.5 7.8 9.3 10.9 14.9-4.9-3.4-9.9-7.9-14.8-11.3 0.9 4.6 0.7 10 4.7 13.5 1 2.1 0.4 4.8-0.9 6.5 0.3-1.4 0.9-3.1 0.1-4.5-1.6-2.6-4.7-3.5-5.7-6.3-0.4-2.7-1.1-5.4-3-7.2-1.6 5.2-1.3 11.2-2.4 16.7-0.3 0.8 0 1.9-0.5 2.7-1.1-6.4-1.3-13.4-2.4-19.6-1.9 4.7-6.8 8.3-6.5 13.7-0.5 2.2-3 2.8-5 3.4 0.4-0.7 1.6-1 2.3-1.8 1.5-1.2 1.6-3.5 1.3-5.4-1.6-4.6 3.5-6.9 3.4-11.3-0.2-0.4-0.4 0.1-0.7 0-4.8 3.7-10.1 8.2-15.3 11.8 3.9-5.2 7.9-10.3 11.9-15.4-2.4 0.7-5.6 0.8-8.2 1.3-3.4 2-7 5.6-11.2 2.7-1.2-1.1 0.6-0.3 0.9-0.4 5 1.3 6-5.1 10.5-5.9 2.4-0.6 4.3-0.9 6.2-2.5-1.1-1.1-3.3-0.2-4.5-0.7-5-0.6-9.9-1-14.4-1.8 0.1-0.5 0.7-0.5 1-0.7 5.9-0.7 12-1.3 17.5-2.3-4-0.8-5.7-5.8-10.2-5.4-2.6 0-5-1-5.9-3.6 0.1-0.7-0.9-1.5 0-1.6 0.4 1.3 1.8 2.6 3 3.1 3.9-0.1 8.5-1.1 11.4 2.3 1.3 0.3 2.4 0.9 3.7 0.9 0.4-0.2-0.1-0.2 0-0.5-3.8-5-8-9.3-11.6-14.5 5.2 3.2 9.9 7.3 15.1 10.9-0.7-2.5-0.7-5.8-1.4-8.5-1.9-3.1-5.3-6.4-2.4-10.3-0.5 2.1-0.1 4.5 1.9 6 5.3 1.6 3.1 8.2 7 11.3 0.5 0 0.1-0.5 0.5-0.8 0.4-6.2 1.1-11.8 2.2-17.8 1.1 6.1 1.3 12.5 2.7 18.5 2.2-4.7 6.9-8.3 6.8-14 1-1.4 2.4-2.2 4.1-2.5-4.3 1.7-2.5 7.3-3.2 10.8-1.2 2.4-3.1 4.8-2.9 7.6 5-3.8 9.6-7 14.6-11.2h0.5c-3.6 4.9-7.8 9.5-11.2 14.5 4.5-1.3 9.9-0.5 13.4-4.5 1.9-1.1 4.2-0.1 5.7 0.8-5.2-1.8-6.6 4.6-10.8 5.9-2.4 0.2-4.6 1.1-6.5 2.7 6.3 1 12.8 1.6 19.1 2.5-0.4 0.9-1.9 0.1-2.7 0.6" clip-path="url(#a)"/><path d="m151.6 53.6c0.3 1.3-0.4 2.5-1.4 2.8-1.6 0.4-2.1-0.4-3-1.4-0.1-1.7 2-1.7 3.2-2.3 0.7-0.2 1.1 0.2 1.2 0.9" clip-path="url(#a)"/><path d="m133.6 127.4c0.1 1.6 0 2.5-1.4 3.6-1.3 0.3-2.8 0.3-3.7-0.7-0.7-0.8-1.2-2.1-0.7-3.2 0.9-2.6 5.1-2.3 5.8 0.3" clip-path="url(#a)"/><path d="m35.5 127.8c0.7 2.3-1 3.9-2.3 5.4-1.3 0.5-2.8 0.2-4.1-0.2-1-0.7-1-1-1.5-2.2 0-1.4 0.2-2.7 1.3-3.7 1.8-1.8 5.4-2.1 6.6 0.7" clip-path="url(#a)"/><path d="m109.7 140.5c0.4 0.8 0.1 1.8-0.7 2.3-1 0.2-1.9 0.4-2.8-0.1-1-0.5-1-1.7-0.7-2.5 0.9-0.9 3.3-0.9 4.2 0.3" clip-path="url(#a)"/><path d="m70.9 146.3c0.1 1.5 0.5 2.9-0.4 4.1-0.7 1.4-2 1.4-3.2 1.8-1.7-0.3-3.3-1.3-3.8-3.1-0.1-1.4 0.2-3.2 1.1-4.1 1.9-1.7 5.4-1.6 6.3 1.3" clip-path="url(#a)"/><path d="m80.7 24.8s0.2 0 0.5 0.1c0.3 0.2 1.2 0.7 1.2 0.7s0.3 0 0.3 0.6v0.8s0 0.2 0.2 0.3 0.4 0 0.5-0.2c0.6-0.6 1.4-1.3 2.4-1.3 1.9-0.1 3.2-0.1 6.4 1.9 3.2 2.1 7.4 5 10.5 9.8 0.9 1.3 0.2 2 0.2 2s-0.5 0.5-1.9-0.8c-1.7-1.7-4.8-4.3-10-6.1s-8.5-1.9-9.1 3.4c-0.1 1 0.5 2.6-1.2 2.7-1.7-0.1-1.1-1.6-1.2-2.7-0.6-5.3-3.9-5.1-9.1-3.4-5.2 1.8-8.3 4.4-10 6.1-1.3 1.3-1.9 0.8-1.9 0.8s-0.7-0.7 0.2-2c3-4.7 7.3-7.7 10.5-9.8s4.5-2 6.4-1.9c1 0 1.9 0.7 2.4 1.3 0.1 0.1 0.3 0.2 0.5 0.2 0.2-0.1 0.2-0.3 0.2-0.3s-0.1-0.3 0-0.8c0-0.5 0.3-0.6 0.3-0.6s0.9-0.5 1.2-0.7c0.2-0.1 0.5-0.1 0.5-0.1" clip-path="url(#a)"/></g></g></svg>
